<svg width="106" height="16" viewBox="0 0 106 16" fill="none" xmlns="http://www.w3.org/2000/svg">
<path d="M0.96 0.999999H9.78V3.08H3.12V6.78H8.68V8.86H3.12V12.92H9.78V15H0.96V0.999999ZM22.1727 15L20.8527 11.52H14.9927L13.6727 15H11.4727L16.8927 0.999999H19.0927L24.4727 15H22.1727ZM16.8527 6.64L15.7927 9.44H20.0727L18.9727 6.56C18.7993 6.09333 18.626 5.59333 18.4527 5.06C18.2793 4.51333 18.106 3.96667 17.9327 3.42C17.746 3.98 17.5593 4.54 17.3727 5.1C17.1993 5.66 17.026 6.17333 16.8527 6.64ZM27.1441 10.78C27.6907 11.5667 28.2574 12.18 28.8441 12.62C29.4441 13.0467 30.2174 13.26 31.1641 13.26C31.6174 13.26 32.0507 13.1867 32.4641 13.04C32.8774 12.8933 33.2174 12.68 33.4841 12.4C33.7507 12.12 33.8841 11.7867 33.8841 11.4C33.8841 10.7333 33.5974 10.2133 33.0241 9.84C32.4641 9.46667 31.6707 9.18 30.6441 8.98C29.3374 8.71333 28.2974 8.25333 27.5241 7.6C26.7507 6.93333 26.3641 5.97333 26.3641 4.72C26.3641 3.92 26.5841 3.22667 27.0241 2.64C27.4774 2.05333 28.0707 1.6 28.8041 1.28C29.5374 0.959999 30.3307 0.799999 31.1841 0.799999C32.2907 0.799999 33.2441 1.01333 34.0441 1.44C34.8441 1.86667 35.4707 2.47333 35.9241 3.26L34.4041 4.76C34.0441 4.16 33.5907 3.67333 33.0441 3.3C32.4974 2.92667 31.8574 2.74 31.1241 2.74C30.3907 2.74 29.7707 2.91333 29.2641 3.26C28.7707 3.59333 28.5241 4.06 28.5241 4.66C28.5241 5.34 28.7841 5.84 29.3041 6.16C29.8374 6.46667 30.5374 6.71333 31.4041 6.9C32.1907 7.06 32.9374 7.30667 33.6441 7.64C34.3507 7.97333 34.9241 8.40667 35.3641 8.94C35.8174 9.46 36.0441 10.0933 36.0441 10.84C36.0441 12.1733 35.5907 13.2333 34.6841 14.02C33.7774 14.8067 32.5307 15.2 30.9441 15.2C29.8641 15.2 28.8774 14.9867 27.9841 14.56C27.1041 14.1333 26.3307 13.44 25.6641 12.48L27.1441 10.78ZM49.5391 0.999999L44.4191 8.76V15H42.2591V8.8L36.7391 0.999999H39.3391L43.3791 6.8L47.0591 0.999999H49.5391ZM57.2297 0.999999C58.5897 0.999999 59.6164 1.3 60.3097 1.9C61.003 2.5 61.3497 3.37333 61.3497 4.52C61.3497 5.14667 61.1964 5.70667 60.8897 6.2C60.5964 6.69333 60.1564 7.08 59.5697 7.36C60.0097 7.50667 60.4164 7.73333 60.7897 8.04C61.1764 8.33333 61.4897 8.71333 61.7297 9.18C61.9697 9.64667 62.0897 10.2133 62.0897 10.88C62.0897 11.6933 61.9497 12.3667 61.6697 12.9C61.3897 13.4333 61.023 13.8533 60.5697 14.16C60.1164 14.4667 59.6164 14.6867 59.0697 14.82C58.523 14.94 57.9764 15 57.4297 15H51.3897V0.999999H57.2297ZM56.8697 3.08H53.5497V6.8H57.1097C57.6564 6.78667 58.1364 6.62 58.5497 6.3C58.9764 5.98 59.1897 5.52667 59.1897 4.94C59.1897 4.27333 58.963 3.8 58.5097 3.52C58.0697 3.22667 57.523 3.08 56.8697 3.08ZM57.2097 8.88H53.5497V12.92H57.3097C58.0697 12.92 58.6897 12.7533 59.1697 12.42C59.6497 12.0733 59.8897 11.5467 59.8897 10.84C59.8897 10.3333 59.7497 9.94 59.4697 9.66C59.1897 9.38 58.843 9.18 58.4297 9.06C58.0297 8.94 57.623 8.88 57.2097 8.88ZM73.9305 15L72.6105 11.52H66.7505L65.4305 15H63.2305L68.6505 0.999999H70.8505L76.2305 15H73.9305ZM68.6105 6.64L67.5505 9.44H71.8305L70.7305 6.56C70.5571 6.09333 70.3838 5.59333 70.2105 5.06C70.0371 4.51333 69.8638 3.96667 69.6905 3.42C69.5038 3.98 69.3171 4.54 69.1305 5.1C68.9571 5.66 68.7838 6.17333 68.6105 6.64ZM88.1619 0.999999H90.3219V15H88.3419L80.2019 4.32C80.2819 5.13333 80.3552 5.94667 80.4219 6.76C80.5019 7.56 80.5419 8.36667 80.5419 9.18V15H78.3819V0.999999H80.3219L88.4619 11.9C88.3419 10.9267 88.2619 9.88 88.2219 8.76C88.1819 7.62667 88.1619 6.57333 88.1619 5.6V0.999999ZM96.0888 15H93.9288V0.999999H96.0888V7.86L102.949 0.999999H105.789L99.7488 6.86L105.909 15H103.209L98.2288 8.34L96.0888 10.42V15Z" fill="#575757"/>
</svg>
